%TF.GenerationSoftware,KiCad,Pcbnew,8.0.5*%
%TF.CreationDate,2024-10-06T10:53:58+02:00*%
%TF.ProjectId,BMA400-breakout,424d4134-3030-42d6-9272-65616b6f7574,rev?*%
%TF.SameCoordinates,Original*%
%TF.FileFunction,Drillmap*%
%TF.FilePolarity,Positive*%
%FSLAX45Y45*%
G04 Gerber Fmt 4.5, Leading zero omitted, Abs format (unit mm)*
G04 Created by KiCad (PCBNEW 8.0.5) date 2024-10-06 10:53:58*
%MOMM*%
%LPD*%
G01*
G04 APERTURE LIST*
%ADD10C,0.050000*%
%ADD11C,0.200000*%
G04 APERTURE END LIST*
D10*
X11709000Y-6376000D02*
G75*
G02*
X11759000Y-6426000I0J-50000D01*
G01*
X11709000Y-8246000D02*
X9833000Y-8246000D01*
X9783000Y-6426000D02*
G75*
G02*
X9833000Y-6376000I50000J0D01*
G01*
X9833000Y-8246000D02*
G75*
G02*
X9783000Y-8196000I0J50000D01*
G01*
X11759000Y-8196000D02*
G75*
G02*
X11709000Y-8246000I-50000J0D01*
G01*
X11759000Y-6426000D02*
X11759000Y-8196000D01*
X9783000Y-8196000D02*
X9783000Y-6426000D01*
X9833000Y-6376000D02*
X11709000Y-6376000D01*
D11*
X10041277Y-8559984D02*
X10041277Y-8359984D01*
X10041277Y-8359984D02*
X10088896Y-8359984D01*
X10088896Y-8359984D02*
X10117467Y-8369508D01*
X10117467Y-8369508D02*
X10136515Y-8388555D01*
X10136515Y-8388555D02*
X10146039Y-8407603D01*
X10146039Y-8407603D02*
X10155563Y-8445698D01*
X10155563Y-8445698D02*
X10155563Y-8474270D01*
X10155563Y-8474270D02*
X10146039Y-8512365D01*
X10146039Y-8512365D02*
X10136515Y-8531412D01*
X10136515Y-8531412D02*
X10117467Y-8550460D01*
X10117467Y-8550460D02*
X10088896Y-8559984D01*
X10088896Y-8559984D02*
X10041277Y-8559984D01*
X10241277Y-8559984D02*
X10241277Y-8426650D01*
X10241277Y-8464746D02*
X10250801Y-8445698D01*
X10250801Y-8445698D02*
X10260324Y-8436174D01*
X10260324Y-8436174D02*
X10279372Y-8426650D01*
X10279372Y-8426650D02*
X10298420Y-8426650D01*
X10365086Y-8559984D02*
X10365086Y-8426650D01*
X10365086Y-8359984D02*
X10355563Y-8369508D01*
X10355563Y-8369508D02*
X10365086Y-8379031D01*
X10365086Y-8379031D02*
X10374610Y-8369508D01*
X10374610Y-8369508D02*
X10365086Y-8359984D01*
X10365086Y-8359984D02*
X10365086Y-8379031D01*
X10488896Y-8559984D02*
X10469848Y-8550460D01*
X10469848Y-8550460D02*
X10460324Y-8531412D01*
X10460324Y-8531412D02*
X10460324Y-8359984D01*
X10593658Y-8559984D02*
X10574610Y-8550460D01*
X10574610Y-8550460D02*
X10565086Y-8531412D01*
X10565086Y-8531412D02*
X10565086Y-8359984D01*
X10822229Y-8559984D02*
X10822229Y-8359984D01*
X10822229Y-8359984D02*
X10888896Y-8502841D01*
X10888896Y-8502841D02*
X10955563Y-8359984D01*
X10955563Y-8359984D02*
X10955563Y-8559984D01*
X11136515Y-8559984D02*
X11136515Y-8455222D01*
X11136515Y-8455222D02*
X11126991Y-8436174D01*
X11126991Y-8436174D02*
X11107944Y-8426650D01*
X11107944Y-8426650D02*
X11069848Y-8426650D01*
X11069848Y-8426650D02*
X11050801Y-8436174D01*
X11136515Y-8550460D02*
X11117467Y-8559984D01*
X11117467Y-8559984D02*
X11069848Y-8559984D01*
X11069848Y-8559984D02*
X11050801Y-8550460D01*
X11050801Y-8550460D02*
X11041277Y-8531412D01*
X11041277Y-8531412D02*
X11041277Y-8512365D01*
X11041277Y-8512365D02*
X11050801Y-8493317D01*
X11050801Y-8493317D02*
X11069848Y-8483793D01*
X11069848Y-8483793D02*
X11117467Y-8483793D01*
X11117467Y-8483793D02*
X11136515Y-8474270D01*
X11231753Y-8426650D02*
X11231753Y-8626650D01*
X11231753Y-8436174D02*
X11250801Y-8426650D01*
X11250801Y-8426650D02*
X11288896Y-8426650D01*
X11288896Y-8426650D02*
X11307943Y-8436174D01*
X11307943Y-8436174D02*
X11317467Y-8445698D01*
X11317467Y-8445698D02*
X11326991Y-8464746D01*
X11326991Y-8464746D02*
X11326991Y-8521889D01*
X11326991Y-8521889D02*
X11317467Y-8540936D01*
X11317467Y-8540936D02*
X11307943Y-8550460D01*
X11307943Y-8550460D02*
X11288896Y-8559984D01*
X11288896Y-8559984D02*
X11250801Y-8559984D01*
X11250801Y-8559984D02*
X11231753Y-8550460D01*
X11412705Y-8540936D02*
X11422229Y-8550460D01*
X11422229Y-8550460D02*
X11412705Y-8559984D01*
X11412705Y-8559984D02*
X11403182Y-8550460D01*
X11403182Y-8550460D02*
X11412705Y-8540936D01*
X11412705Y-8540936D02*
X11412705Y-8559984D01*
X11412705Y-8436174D02*
X11422229Y-8445698D01*
X11422229Y-8445698D02*
X11412705Y-8455222D01*
X11412705Y-8455222D02*
X11403182Y-8445698D01*
X11403182Y-8445698D02*
X11412705Y-8436174D01*
X11412705Y-8436174D02*
X11412705Y-8455222D01*
M02*
