G04 #@! TF.GenerationSoftware,KiCad,Pcbnew,8.0.5*
G04 #@! TF.CreationDate,2024-09-21T15:57:37+02:00*
G04 #@! TF.ProjectId,BMA400-breakout,424d4134-3030-42d6-9272-65616b6f7574,rev?*
G04 #@! TF.SameCoordinates,Original*
G04 #@! TF.FileFunction,Legend,Top*
G04 #@! TF.FilePolarity,Positive*
%FSLAX46Y46*%
G04 Gerber Fmt 4.6, Leading zero omitted, Abs format (unit mm)*
G04 Created by KiCad (PCBNEW 8.0.5) date 2024-09-21 15:57:37*
%MOMM*%
%LPD*%
G01*
G04 APERTURE LIST*
G04 Aperture macros list*
%AMRoundRect*
0 Rectangle with rounded corners*
0 $1 Rounding radius*
0 $2 $3 $4 $5 $6 $7 $8 $9 X,Y pos of 4 corners*
0 Add a 4 corners polygon primitive as box body*
4,1,4,$2,$3,$4,$5,$6,$7,$8,$9,$2,$3,0*
0 Add four circle primitives for the rounded corners*
1,1,$1+$1,$2,$3*
1,1,$1+$1,$4,$5*
1,1,$1+$1,$6,$7*
1,1,$1+$1,$8,$9*
0 Add four rect primitives between the rounded corners*
20,1,$1+$1,$2,$3,$4,$5,0*
20,1,$1+$1,$4,$5,$6,$7,0*
20,1,$1+$1,$6,$7,$8,$9,0*
20,1,$1+$1,$8,$9,$2,$3,0*%
G04 Aperture macros list end*
%ADD10C,0.200000*%
%ADD11C,0.100000*%
%ADD12C,0.125000*%
%ADD13C,0.120000*%
%ADD14C,1.700000*%
%ADD15O,1.700000X1.700000*%
%ADD16R,1.700000X1.700000*%
%ADD17RoundRect,0.237500X0.250000X0.237500X-0.250000X0.237500X-0.250000X-0.237500X0.250000X-0.237500X0*%
%ADD18RoundRect,0.237500X-0.250000X-0.237500X0.250000X-0.237500X0.250000X0.237500X-0.250000X0.237500X0*%
%ADD19RoundRect,0.237500X0.300000X0.237500X-0.300000X0.237500X-0.300000X-0.237500X0.300000X-0.237500X0*%
%ADD20R,0.410000X0.280000*%
%ADD21R,0.280000X0.410000*%
%ADD22RoundRect,0.237500X-0.237500X0.300000X-0.237500X-0.300000X0.237500X-0.300000X0.237500X0.300000X0*%
G04 APERTURE END LIST*
D10*
G36*
X100883273Y-68288430D02*
G01*
X100902725Y-68307882D01*
X100932530Y-68367492D01*
X100932530Y-68463135D01*
X100902725Y-68522743D01*
X100878056Y-68547413D01*
X100818447Y-68577219D01*
X100561102Y-68577219D01*
X100561102Y-68253409D01*
X100778208Y-68253409D01*
X100883273Y-68288430D01*
G37*
G36*
X100830437Y-67807024D02*
G01*
X100855106Y-67831692D01*
X100884911Y-67891302D01*
X100884911Y-67939326D01*
X100855106Y-67998935D01*
X100830437Y-68023603D01*
X100770828Y-68053409D01*
X100561102Y-68053409D01*
X100561102Y-67777219D01*
X100770828Y-67777219D01*
X100830437Y-67807024D01*
G37*
G36*
X104735199Y-67807024D02*
G01*
X104759868Y-67831692D01*
X104795321Y-67902599D01*
X104837292Y-68070480D01*
X104837292Y-68283956D01*
X104795321Y-68451837D01*
X104759868Y-68522743D01*
X104735199Y-68547413D01*
X104675590Y-68577219D01*
X104627566Y-68577219D01*
X104567956Y-68547414D01*
X104543289Y-68522746D01*
X104507834Y-68451837D01*
X104465864Y-68283956D01*
X104465864Y-68070481D01*
X104507834Y-67902599D01*
X104543288Y-67831692D01*
X104567956Y-67807023D01*
X104627566Y-67777219D01*
X104675590Y-67777219D01*
X104735199Y-67807024D01*
G37*
G36*
X105687580Y-67807024D02*
G01*
X105712249Y-67831692D01*
X105747702Y-67902599D01*
X105789673Y-68070480D01*
X105789673Y-68283956D01*
X105747702Y-68451837D01*
X105712249Y-68522743D01*
X105687580Y-68547413D01*
X105627971Y-68577219D01*
X105579947Y-68577219D01*
X105520337Y-68547414D01*
X105495670Y-68522746D01*
X105460215Y-68451837D01*
X105418245Y-68283956D01*
X105418245Y-68070481D01*
X105460215Y-67902599D01*
X105495669Y-67831692D01*
X105520337Y-67807023D01*
X105579947Y-67777219D01*
X105627971Y-67777219D01*
X105687580Y-67807024D01*
G37*
G36*
X102893788Y-68291504D02*
G01*
X102695083Y-68291504D01*
X102794435Y-67993446D01*
X102893788Y-68291504D01*
G37*
G36*
X106100784Y-68888330D02*
G01*
X100249991Y-68888330D01*
X100249991Y-67677219D01*
X100361102Y-67677219D01*
X100361102Y-68677219D01*
X100363023Y-68696728D01*
X100377955Y-68732776D01*
X100405545Y-68760366D01*
X100441593Y-68775298D01*
X100461102Y-68777219D01*
X100842054Y-68777219D01*
X100861563Y-68775298D01*
X100864883Y-68773922D01*
X100868467Y-68773668D01*
X100886775Y-68766662D01*
X100982013Y-68719043D01*
X100990408Y-68713758D01*
X100992850Y-68712747D01*
X100995597Y-68710491D01*
X100998603Y-68708600D01*
X101000333Y-68706605D01*
X101008003Y-68700310D01*
X101055622Y-68652690D01*
X101061914Y-68645023D01*
X101063911Y-68643292D01*
X101065804Y-68640284D01*
X101068059Y-68637537D01*
X101069070Y-68635095D01*
X101074354Y-68626701D01*
X101121973Y-68531464D01*
X101128979Y-68513155D01*
X101129233Y-68509571D01*
X101130609Y-68506251D01*
X101132530Y-68486742D01*
X101132530Y-68343885D01*
X101130609Y-68324376D01*
X101129233Y-68321055D01*
X101128979Y-68317472D01*
X101121973Y-68299163D01*
X101074354Y-68203926D01*
X101069068Y-68195529D01*
X101068058Y-68193089D01*
X101065804Y-68190343D01*
X101063911Y-68187335D01*
X101061913Y-68185602D01*
X101055621Y-68177936D01*
X101008003Y-68130317D01*
X101007214Y-68129669D01*
X101008002Y-68128882D01*
X101014294Y-68121215D01*
X101016292Y-68119483D01*
X101018185Y-68116474D01*
X101020439Y-68113729D01*
X101021449Y-68111288D01*
X101026735Y-68102892D01*
X101074354Y-68007655D01*
X101081360Y-67989346D01*
X101081614Y-67985762D01*
X101082990Y-67982442D01*
X101084911Y-67962933D01*
X101084911Y-67867695D01*
X101082990Y-67848186D01*
X101081614Y-67844865D01*
X101081360Y-67841282D01*
X101074354Y-67822973D01*
X101026735Y-67727736D01*
X101021449Y-67719339D01*
X101020439Y-67716899D01*
X101018185Y-67714153D01*
X101016292Y-67711145D01*
X101014294Y-67709412D01*
X101008002Y-67701746D01*
X100983476Y-67677219D01*
X101361102Y-67677219D01*
X101361102Y-68677219D01*
X101363023Y-68696728D01*
X101377955Y-68732776D01*
X101405545Y-68760366D01*
X101441593Y-68775298D01*
X101480611Y-68775298D01*
X101516659Y-68760366D01*
X101544249Y-68732776D01*
X101559181Y-68696728D01*
X101561102Y-68677219D01*
X101561102Y-68127975D01*
X101703817Y-68433793D01*
X101708049Y-68440938D01*
X101708929Y-68443356D01*
X101710494Y-68445065D01*
X101713808Y-68450659D01*
X101725018Y-68460925D01*
X101735280Y-68472131D01*
X101739305Y-68474009D01*
X101742583Y-68477011D01*
X101756865Y-68482204D01*
X101770638Y-68488632D01*
X101775077Y-68488827D01*
X101779252Y-68490345D01*
X101794435Y-68489677D01*
X101809618Y-68490345D01*
X101813791Y-68488827D01*
X101818233Y-68488632D01*
X101832017Y-68482199D01*
X101846287Y-68477010D01*
X101849560Y-68474012D01*
X101853590Y-68472132D01*
X101863859Y-68460917D01*
X101875062Y-68450659D01*
X101878373Y-68445068D01*
X101879942Y-68443356D01*
X101880822Y-68440934D01*
X101885053Y-68433793D01*
X102027768Y-68127974D01*
X102027768Y-68677219D01*
X102029689Y-68696728D01*
X102044621Y-68732776D01*
X102072211Y-68760366D01*
X102108259Y-68775298D01*
X102147277Y-68775298D01*
X102183325Y-68760366D01*
X102210915Y-68732776D01*
X102225847Y-68696728D01*
X102227768Y-68677219D01*
X102227768Y-68664712D01*
X102361887Y-68664712D01*
X102364653Y-68703632D01*
X102382103Y-68738531D01*
X102411579Y-68764096D01*
X102448595Y-68776434D01*
X102487515Y-68773668D01*
X102522414Y-68756218D01*
X102547979Y-68726742D01*
X102555970Y-68708842D01*
X102628416Y-68491504D01*
X102960454Y-68491504D01*
X103032900Y-68708841D01*
X103040891Y-68726742D01*
X103066456Y-68756218D01*
X103101355Y-68773667D01*
X103140275Y-68776434D01*
X103177291Y-68764095D01*
X103206767Y-68738530D01*
X103224217Y-68703631D01*
X103226983Y-68664711D01*
X103222636Y-68645596D01*
X103117897Y-68331378D01*
X103314268Y-68331378D01*
X103315404Y-68347362D01*
X103315404Y-68363394D01*
X103316779Y-68366714D01*
X103317034Y-68370298D01*
X103324201Y-68384633D01*
X103330336Y-68399442D01*
X103332876Y-68401982D01*
X103334484Y-68405197D01*
X103346595Y-68415701D01*
X103357926Y-68427032D01*
X103361244Y-68428406D01*
X103363960Y-68430762D01*
X103379169Y-68435831D01*
X103393974Y-68441964D01*
X103399074Y-68442466D01*
X103400976Y-68443100D01*
X103403609Y-68442912D01*
X103413483Y-68443885D01*
X103789673Y-68443885D01*
X103789673Y-68677219D01*
X103791594Y-68696728D01*
X103806526Y-68732776D01*
X103834116Y-68760366D01*
X103870164Y-68775298D01*
X103909182Y-68775298D01*
X103945230Y-68760366D01*
X103972820Y-68732776D01*
X103987752Y-68696728D01*
X103989673Y-68677219D01*
X103989673Y-68443885D01*
X104032530Y-68443885D01*
X104052039Y-68441964D01*
X104088087Y-68427032D01*
X104115677Y-68399442D01*
X104130609Y-68363394D01*
X104130609Y-68324376D01*
X104115677Y-68288328D01*
X104088087Y-68260738D01*
X104052039Y-68245806D01*
X104032530Y-68243885D01*
X103989673Y-68243885D01*
X103989673Y-68058171D01*
X104265864Y-68058171D01*
X104265864Y-68296266D01*
X104266199Y-68299668D01*
X104265982Y-68301127D01*
X104267061Y-68308424D01*
X104267785Y-68315775D01*
X104268349Y-68317138D01*
X104268850Y-68320520D01*
X104316469Y-68510995D01*
X104316982Y-68512432D01*
X104317034Y-68513155D01*
X104320142Y-68521279D01*
X104323064Y-68529456D01*
X104323494Y-68530036D01*
X104324040Y-68531463D01*
X104371659Y-68626701D01*
X104376942Y-68635093D01*
X104377954Y-68637537D01*
X104380210Y-68640286D01*
X104382102Y-68643291D01*
X104384096Y-68645020D01*
X104390391Y-68652690D01*
X104438009Y-68700310D01*
X104445677Y-68706603D01*
X104447409Y-68708600D01*
X104450417Y-68710493D01*
X104453163Y-68712747D01*
X104455603Y-68713757D01*
X104464000Y-68719043D01*
X104559237Y-68766662D01*
X104577546Y-68773668D01*
X104581129Y-68773922D01*
X104584450Y-68775298D01*
X104603959Y-68777219D01*
X104699197Y-68777219D01*
X104718706Y-68775298D01*
X104722026Y-68773922D01*
X104725610Y-68773668D01*
X104743918Y-68766662D01*
X104839156Y-68719043D01*
X104847551Y-68713758D01*
X104849993Y-68712747D01*
X104852740Y-68710491D01*
X104855746Y-68708600D01*
X104857476Y-68706605D01*
X104865146Y-68700310D01*
X104912765Y-68652690D01*
X104919057Y-68645023D01*
X104921054Y-68643292D01*
X104922947Y-68640284D01*
X104925202Y-68637537D01*
X104926213Y-68635095D01*
X104931497Y-68626701D01*
X104979116Y-68531464D01*
X104979662Y-68530035D01*
X104980092Y-68529456D01*
X104983013Y-68521279D01*
X104986122Y-68513155D01*
X104986173Y-68512434D01*
X104986687Y-68510996D01*
X105034306Y-68320520D01*
X105034806Y-68317138D01*
X105035371Y-68315775D01*
X105036094Y-68308424D01*
X105037174Y-68301127D01*
X105036956Y-68299668D01*
X105037292Y-68296266D01*
X105037292Y-68058171D01*
X105218245Y-68058171D01*
X105218245Y-68296266D01*
X105218580Y-68299668D01*
X105218363Y-68301127D01*
X105219442Y-68308424D01*
X105220166Y-68315775D01*
X105220730Y-68317138D01*
X105221231Y-68320520D01*
X105268850Y-68510995D01*
X105269363Y-68512432D01*
X105269415Y-68513155D01*
X105272523Y-68521279D01*
X105275445Y-68529456D01*
X105275875Y-68530036D01*
X105276421Y-68531463D01*
X105324040Y-68626701D01*
X105329323Y-68635093D01*
X105330335Y-68637537D01*
X105332591Y-68640286D01*
X105334483Y-68643291D01*
X105336477Y-68645020D01*
X105342772Y-68652690D01*
X105390390Y-68700310D01*
X105398058Y-68706603D01*
X105399790Y-68708600D01*
X105402798Y-68710493D01*
X105405544Y-68712747D01*
X105407984Y-68713757D01*
X105416381Y-68719043D01*
X105511618Y-68766662D01*
X105529927Y-68773668D01*
X105533510Y-68773922D01*
X105536831Y-68775298D01*
X105556340Y-68777219D01*
X105651578Y-68777219D01*
X105671087Y-68775298D01*
X105674407Y-68773922D01*
X105677991Y-68773668D01*
X105696299Y-68766662D01*
X105791537Y-68719043D01*
X105799932Y-68713758D01*
X105802374Y-68712747D01*
X105805121Y-68710491D01*
X105808127Y-68708600D01*
X105809857Y-68706605D01*
X105817527Y-68700310D01*
X105865146Y-68652690D01*
X105871438Y-68645023D01*
X105873435Y-68643292D01*
X105875328Y-68640284D01*
X105877583Y-68637537D01*
X105878594Y-68635095D01*
X105883878Y-68626701D01*
X105931497Y-68531464D01*
X105932043Y-68530035D01*
X105932473Y-68529456D01*
X105935394Y-68521279D01*
X105938503Y-68513155D01*
X105938554Y-68512434D01*
X105939068Y-68510996D01*
X105986687Y-68320520D01*
X105987187Y-68317138D01*
X105987752Y-68315775D01*
X105988475Y-68308424D01*
X105989555Y-68301127D01*
X105989337Y-68299668D01*
X105989673Y-68296266D01*
X105989673Y-68058171D01*
X105989337Y-68054768D01*
X105989555Y-68053310D01*
X105988475Y-68046012D01*
X105987752Y-68038662D01*
X105987187Y-68037298D01*
X105986687Y-68033917D01*
X105939068Y-67843441D01*
X105938554Y-67842002D01*
X105938503Y-67841282D01*
X105935394Y-67833157D01*
X105932473Y-67824981D01*
X105932043Y-67824401D01*
X105931497Y-67822973D01*
X105883878Y-67727736D01*
X105878592Y-67719339D01*
X105877582Y-67716899D01*
X105875328Y-67714153D01*
X105873435Y-67711145D01*
X105871437Y-67709412D01*
X105865145Y-67701746D01*
X105817527Y-67654127D01*
X105809856Y-67647832D01*
X105808127Y-67645838D01*
X105805119Y-67643944D01*
X105802373Y-67641691D01*
X105799933Y-67640680D01*
X105791537Y-67635395D01*
X105696299Y-67587776D01*
X105677991Y-67580770D01*
X105674407Y-67580515D01*
X105671087Y-67579140D01*
X105651578Y-67577219D01*
X105556340Y-67577219D01*
X105536831Y-67579140D01*
X105533510Y-67580515D01*
X105529927Y-67580770D01*
X105511618Y-67587776D01*
X105416381Y-67635395D01*
X105407984Y-67640680D01*
X105405544Y-67641691D01*
X105402798Y-67643944D01*
X105399790Y-67645838D01*
X105398057Y-67647835D01*
X105390391Y-67654128D01*
X105342772Y-67701746D01*
X105336477Y-67709416D01*
X105334483Y-67711146D01*
X105332589Y-67714153D01*
X105330336Y-67716900D01*
X105329325Y-67719339D01*
X105324040Y-67727736D01*
X105276421Y-67822974D01*
X105275875Y-67824400D01*
X105275445Y-67824981D01*
X105272523Y-67833157D01*
X105269415Y-67841282D01*
X105269363Y-67842004D01*
X105268850Y-67843442D01*
X105221231Y-68033917D01*
X105220730Y-68037298D01*
X105220166Y-68038662D01*
X105219442Y-68046012D01*
X105218363Y-68053310D01*
X105218580Y-68054768D01*
X105218245Y-68058171D01*
X105037292Y-68058171D01*
X105036956Y-68054768D01*
X105037174Y-68053310D01*
X105036094Y-68046012D01*
X105035371Y-68038662D01*
X105034806Y-68037298D01*
X105034306Y-68033917D01*
X104986687Y-67843441D01*
X104986173Y-67842002D01*
X104986122Y-67841282D01*
X104983013Y-67833157D01*
X104980092Y-67824981D01*
X104979662Y-67824401D01*
X104979116Y-67822973D01*
X104931497Y-67727736D01*
X104926211Y-67719339D01*
X104925201Y-67716899D01*
X104922947Y-67714153D01*
X104921054Y-67711145D01*
X104919056Y-67709412D01*
X104912764Y-67701746D01*
X104865146Y-67654127D01*
X104857475Y-67647832D01*
X104855746Y-67645838D01*
X104852738Y-67643944D01*
X104849992Y-67641691D01*
X104847552Y-67640680D01*
X104839156Y-67635395D01*
X104743918Y-67587776D01*
X104725610Y-67580770D01*
X104722026Y-67580515D01*
X104718706Y-67579140D01*
X104699197Y-67577219D01*
X104603959Y-67577219D01*
X104584450Y-67579140D01*
X104581129Y-67580515D01*
X104577546Y-67580770D01*
X104559237Y-67587776D01*
X104464000Y-67635395D01*
X104455603Y-67640680D01*
X104453163Y-67641691D01*
X104450417Y-67643944D01*
X104447409Y-67645838D01*
X104445676Y-67647835D01*
X104438010Y-67654128D01*
X104390391Y-67701746D01*
X104384096Y-67709416D01*
X104382102Y-67711146D01*
X104380208Y-67714153D01*
X104377955Y-67716900D01*
X104376944Y-67719339D01*
X104371659Y-67727736D01*
X104324040Y-67822974D01*
X104323494Y-67824400D01*
X104323064Y-67824981D01*
X104320142Y-67833157D01*
X104317034Y-67841282D01*
X104316982Y-67842004D01*
X104316469Y-67843442D01*
X104268850Y-68033917D01*
X104268349Y-68037298D01*
X104267785Y-68038662D01*
X104267061Y-68046012D01*
X104265982Y-68053310D01*
X104266199Y-68054768D01*
X104265864Y-68058171D01*
X103989673Y-68058171D01*
X103989673Y-68010552D01*
X103987752Y-67991043D01*
X103972820Y-67954995D01*
X103945230Y-67927405D01*
X103909182Y-67912473D01*
X103870164Y-67912473D01*
X103834116Y-67927405D01*
X103806526Y-67954995D01*
X103791594Y-67991043D01*
X103789673Y-68010552D01*
X103789673Y-68243885D01*
X103552225Y-68243885D01*
X103746446Y-67661223D01*
X103750793Y-67642108D01*
X103748027Y-67603188D01*
X103730577Y-67568289D01*
X103701101Y-67542724D01*
X103664085Y-67530385D01*
X103625165Y-67533152D01*
X103590266Y-67550601D01*
X103564701Y-67580077D01*
X103556710Y-67597978D01*
X103318615Y-68312262D01*
X103316415Y-68321933D01*
X103315404Y-68324376D01*
X103315404Y-68326382D01*
X103314268Y-68331378D01*
X103117897Y-68331378D01*
X102889303Y-67645596D01*
X102881312Y-67627696D01*
X102876627Y-67622294D01*
X102873434Y-67615908D01*
X102863965Y-67607695D01*
X102855747Y-67598220D01*
X102849355Y-67595023D01*
X102843958Y-67590343D01*
X102832064Y-67586378D01*
X102820848Y-67580770D01*
X102813720Y-67580263D01*
X102806942Y-67578004D01*
X102794437Y-67578893D01*
X102781928Y-67578004D01*
X102775146Y-67580264D01*
X102768022Y-67580771D01*
X102756813Y-67586374D01*
X102744912Y-67590342D01*
X102739511Y-67595025D01*
X102733123Y-67598220D01*
X102724907Y-67607691D01*
X102715436Y-67615907D01*
X102712241Y-67622296D01*
X102707558Y-67627696D01*
X102699567Y-67645597D01*
X102366234Y-68645596D01*
X102361887Y-68664712D01*
X102227768Y-68664712D01*
X102227768Y-67677219D01*
X102226505Y-67664395D01*
X102226609Y-67662036D01*
X102226148Y-67660768D01*
X102225847Y-67657710D01*
X102219206Y-67641679D01*
X102213275Y-67625367D01*
X102211768Y-67623721D01*
X102210915Y-67621662D01*
X102198653Y-67609400D01*
X102186923Y-67596591D01*
X102184899Y-67595646D01*
X102183325Y-67594072D01*
X102167309Y-67587437D01*
X102151566Y-67580091D01*
X102149336Y-67579993D01*
X102147277Y-67579140D01*
X102129925Y-67579140D01*
X102112585Y-67578378D01*
X102110489Y-67579140D01*
X102108259Y-67579140D01*
X102092228Y-67585780D01*
X102075916Y-67591712D01*
X102074270Y-67593218D01*
X102072211Y-67594072D01*
X102059943Y-67606339D01*
X102047141Y-67618064D01*
X102045574Y-67620708D01*
X102044621Y-67621662D01*
X102043717Y-67623843D01*
X102037150Y-67634930D01*
X101794434Y-68155033D01*
X101551720Y-67634930D01*
X101545152Y-67623843D01*
X101544249Y-67621662D01*
X101543295Y-67620708D01*
X101541729Y-67618064D01*
X101528932Y-67606345D01*
X101516659Y-67594072D01*
X101514597Y-67593218D01*
X101512954Y-67591713D01*
X101496652Y-67585784D01*
X101480611Y-67579140D01*
X101478380Y-67579140D01*
X101476285Y-67578378D01*
X101458945Y-67579140D01*
X101441593Y-67579140D01*
X101439533Y-67579993D01*
X101437305Y-67580091D01*
X101421574Y-67587432D01*
X101405545Y-67594072D01*
X101403968Y-67595648D01*
X101401947Y-67596592D01*
X101390228Y-67609388D01*
X101377955Y-67621662D01*
X101377101Y-67623723D01*
X101375596Y-67625367D01*
X101369667Y-67641668D01*
X101363023Y-67657710D01*
X101362721Y-67660768D01*
X101362261Y-67662036D01*
X101362364Y-67664395D01*
X101361102Y-67677219D01*
X100983476Y-67677219D01*
X100960384Y-67654127D01*
X100952713Y-67647832D01*
X100950984Y-67645838D01*
X100947976Y-67643944D01*
X100945230Y-67641691D01*
X100942790Y-67640680D01*
X100934394Y-67635395D01*
X100839156Y-67587776D01*
X100820848Y-67580770D01*
X100817264Y-67580515D01*
X100813944Y-67579140D01*
X100794435Y-67577219D01*
X100461102Y-67577219D01*
X100441593Y-67579140D01*
X100405545Y-67594072D01*
X100377955Y-67621662D01*
X100363023Y-67657710D01*
X100361102Y-67677219D01*
X100249991Y-67677219D01*
X100249991Y-67419274D01*
X106100784Y-67419274D01*
X106100784Y-68888330D01*
G37*
D11*
X99050000Y-68910000D02*
X107390000Y-68910000D01*
X107390000Y-76960000D01*
X99050000Y-76960000D01*
X99050000Y-68910000D01*
D12*
X111282712Y-66093500D02*
X111425569Y-66141119D01*
X111425569Y-66141119D02*
X111663664Y-66141119D01*
X111663664Y-66141119D02*
X111758902Y-66093500D01*
X111758902Y-66093500D02*
X111806521Y-66045880D01*
X111806521Y-66045880D02*
X111854140Y-65950642D01*
X111854140Y-65950642D02*
X111854140Y-65855404D01*
X111854140Y-65855404D02*
X111806521Y-65760166D01*
X111806521Y-65760166D02*
X111758902Y-65712547D01*
X111758902Y-65712547D02*
X111663664Y-65664928D01*
X111663664Y-65664928D02*
X111473188Y-65617309D01*
X111473188Y-65617309D02*
X111377950Y-65569690D01*
X111377950Y-65569690D02*
X111330331Y-65522071D01*
X111330331Y-65522071D02*
X111282712Y-65426833D01*
X111282712Y-65426833D02*
X111282712Y-65331595D01*
X111282712Y-65331595D02*
X111330331Y-65236357D01*
X111330331Y-65236357D02*
X111377950Y-65188738D01*
X111377950Y-65188738D02*
X111473188Y-65141119D01*
X111473188Y-65141119D02*
X111711283Y-65141119D01*
X111711283Y-65141119D02*
X111854140Y-65188738D01*
X112282712Y-66141119D02*
X112282712Y-65141119D01*
X112282712Y-65141119D02*
X112520807Y-65141119D01*
X112520807Y-65141119D02*
X112663664Y-65188738D01*
X112663664Y-65188738D02*
X112758902Y-65283976D01*
X112758902Y-65283976D02*
X112806521Y-65379214D01*
X112806521Y-65379214D02*
X112854140Y-65569690D01*
X112854140Y-65569690D02*
X112854140Y-65712547D01*
X112854140Y-65712547D02*
X112806521Y-65903023D01*
X112806521Y-65903023D02*
X112758902Y-65998261D01*
X112758902Y-65998261D02*
X112663664Y-66093500D01*
X112663664Y-66093500D02*
X112520807Y-66141119D01*
X112520807Y-66141119D02*
X112282712Y-66141119D01*
X113235093Y-65855404D02*
X113711283Y-65855404D01*
X113139855Y-66141119D02*
X113473188Y-65141119D01*
X113473188Y-65141119D02*
X113806521Y-66141119D01*
X111332712Y-68563500D02*
X111475569Y-68611119D01*
X111475569Y-68611119D02*
X111713664Y-68611119D01*
X111713664Y-68611119D02*
X111808902Y-68563500D01*
X111808902Y-68563500D02*
X111856521Y-68515880D01*
X111856521Y-68515880D02*
X111904140Y-68420642D01*
X111904140Y-68420642D02*
X111904140Y-68325404D01*
X111904140Y-68325404D02*
X111856521Y-68230166D01*
X111856521Y-68230166D02*
X111808902Y-68182547D01*
X111808902Y-68182547D02*
X111713664Y-68134928D01*
X111713664Y-68134928D02*
X111523188Y-68087309D01*
X111523188Y-68087309D02*
X111427950Y-68039690D01*
X111427950Y-68039690D02*
X111380331Y-67992071D01*
X111380331Y-67992071D02*
X111332712Y-67896833D01*
X111332712Y-67896833D02*
X111332712Y-67801595D01*
X111332712Y-67801595D02*
X111380331Y-67706357D01*
X111380331Y-67706357D02*
X111427950Y-67658738D01*
X111427950Y-67658738D02*
X111523188Y-67611119D01*
X111523188Y-67611119D02*
X111761283Y-67611119D01*
X111761283Y-67611119D02*
X111904140Y-67658738D01*
X112904140Y-68515880D02*
X112856521Y-68563500D01*
X112856521Y-68563500D02*
X112713664Y-68611119D01*
X112713664Y-68611119D02*
X112618426Y-68611119D01*
X112618426Y-68611119D02*
X112475569Y-68563500D01*
X112475569Y-68563500D02*
X112380331Y-68468261D01*
X112380331Y-68468261D02*
X112332712Y-68373023D01*
X112332712Y-68373023D02*
X112285093Y-68182547D01*
X112285093Y-68182547D02*
X112285093Y-68039690D01*
X112285093Y-68039690D02*
X112332712Y-67849214D01*
X112332712Y-67849214D02*
X112380331Y-67753976D01*
X112380331Y-67753976D02*
X112475569Y-67658738D01*
X112475569Y-67658738D02*
X112618426Y-67611119D01*
X112618426Y-67611119D02*
X112713664Y-67611119D01*
X112713664Y-67611119D02*
X112856521Y-67658738D01*
X112856521Y-67658738D02*
X112904140Y-67706357D01*
X113808902Y-68611119D02*
X113332712Y-68611119D01*
X113332712Y-68611119D02*
X113332712Y-67611119D01*
X110815093Y-71271119D02*
X111434140Y-71271119D01*
X111434140Y-71271119D02*
X111100807Y-71652071D01*
X111100807Y-71652071D02*
X111243664Y-71652071D01*
X111243664Y-71652071D02*
X111338902Y-71699690D01*
X111338902Y-71699690D02*
X111386521Y-71747309D01*
X111386521Y-71747309D02*
X111434140Y-71842547D01*
X111434140Y-71842547D02*
X111434140Y-72080642D01*
X111434140Y-72080642D02*
X111386521Y-72175880D01*
X111386521Y-72175880D02*
X111338902Y-72223500D01*
X111338902Y-72223500D02*
X111243664Y-72271119D01*
X111243664Y-72271119D02*
X110957950Y-72271119D01*
X110957950Y-72271119D02*
X110862712Y-72223500D01*
X110862712Y-72223500D02*
X110815093Y-72175880D01*
X111862712Y-72175880D02*
X111910331Y-72223500D01*
X111910331Y-72223500D02*
X111862712Y-72271119D01*
X111862712Y-72271119D02*
X111815093Y-72223500D01*
X111815093Y-72223500D02*
X111862712Y-72175880D01*
X111862712Y-72175880D02*
X111862712Y-72271119D01*
X112243664Y-71271119D02*
X112862711Y-71271119D01*
X112862711Y-71271119D02*
X112529378Y-71652071D01*
X112529378Y-71652071D02*
X112672235Y-71652071D01*
X112672235Y-71652071D02*
X112767473Y-71699690D01*
X112767473Y-71699690D02*
X112815092Y-71747309D01*
X112815092Y-71747309D02*
X112862711Y-71842547D01*
X112862711Y-71842547D02*
X112862711Y-72080642D01*
X112862711Y-72080642D02*
X112815092Y-72175880D01*
X112815092Y-72175880D02*
X112767473Y-72223500D01*
X112767473Y-72223500D02*
X112672235Y-72271119D01*
X112672235Y-72271119D02*
X112386521Y-72271119D01*
X112386521Y-72271119D02*
X112291283Y-72223500D01*
X112291283Y-72223500D02*
X112243664Y-72175880D01*
X113148426Y-71271119D02*
X113481759Y-72271119D01*
X113481759Y-72271119D02*
X113815092Y-71271119D01*
X111714140Y-73918738D02*
X111618902Y-73871119D01*
X111618902Y-73871119D02*
X111476045Y-73871119D01*
X111476045Y-73871119D02*
X111333188Y-73918738D01*
X111333188Y-73918738D02*
X111237950Y-74013976D01*
X111237950Y-74013976D02*
X111190331Y-74109214D01*
X111190331Y-74109214D02*
X111142712Y-74299690D01*
X111142712Y-74299690D02*
X111142712Y-74442547D01*
X111142712Y-74442547D02*
X111190331Y-74633023D01*
X111190331Y-74633023D02*
X111237950Y-74728261D01*
X111237950Y-74728261D02*
X111333188Y-74823500D01*
X111333188Y-74823500D02*
X111476045Y-74871119D01*
X111476045Y-74871119D02*
X111571283Y-74871119D01*
X111571283Y-74871119D02*
X111714140Y-74823500D01*
X111714140Y-74823500D02*
X111761759Y-74775880D01*
X111761759Y-74775880D02*
X111761759Y-74442547D01*
X111761759Y-74442547D02*
X111571283Y-74442547D01*
X112190331Y-74871119D02*
X112190331Y-73871119D01*
X112190331Y-73871119D02*
X112761759Y-74871119D01*
X112761759Y-74871119D02*
X112761759Y-73871119D01*
X113237950Y-74871119D02*
X113237950Y-73871119D01*
X113237950Y-73871119D02*
X113476045Y-73871119D01*
X113476045Y-73871119D02*
X113618902Y-73918738D01*
X113618902Y-73918738D02*
X113714140Y-74013976D01*
X113714140Y-74013976D02*
X113761759Y-74109214D01*
X113761759Y-74109214D02*
X113809378Y-74299690D01*
X113809378Y-74299690D02*
X113809378Y-74442547D01*
X113809378Y-74442547D02*
X113761759Y-74633023D01*
X113761759Y-74633023D02*
X113714140Y-74728261D01*
X113714140Y-74728261D02*
X113618902Y-74823500D01*
X113618902Y-74823500D02*
X113476045Y-74871119D01*
X113476045Y-74871119D02*
X113237950Y-74871119D01*
X111010331Y-81001119D02*
X111010331Y-80001119D01*
X111486521Y-81001119D02*
X111486521Y-80001119D01*
X111486521Y-80001119D02*
X112057949Y-81001119D01*
X112057949Y-81001119D02*
X112057949Y-80001119D01*
X112391283Y-80001119D02*
X112962711Y-80001119D01*
X112676997Y-81001119D02*
X112676997Y-80001119D01*
X113819854Y-81001119D02*
X113248426Y-81001119D01*
X113534140Y-81001119D02*
X113534140Y-80001119D01*
X113534140Y-80001119D02*
X113438902Y-80143976D01*
X113438902Y-80143976D02*
X113343664Y-80239214D01*
X113343664Y-80239214D02*
X113248426Y-80286833D01*
X111020331Y-78501119D02*
X111020331Y-77501119D01*
X111496521Y-78501119D02*
X111496521Y-77501119D01*
X111496521Y-77501119D02*
X112067949Y-78501119D01*
X112067949Y-78501119D02*
X112067949Y-77501119D01*
X112401283Y-77501119D02*
X112972711Y-77501119D01*
X112686997Y-78501119D02*
X112686997Y-77501119D01*
X113258426Y-77596357D02*
X113306045Y-77548738D01*
X113306045Y-77548738D02*
X113401283Y-77501119D01*
X113401283Y-77501119D02*
X113639378Y-77501119D01*
X113639378Y-77501119D02*
X113734616Y-77548738D01*
X113734616Y-77548738D02*
X113782235Y-77596357D01*
X113782235Y-77596357D02*
X113829854Y-77691595D01*
X113829854Y-77691595D02*
X113829854Y-77786833D01*
X113829854Y-77786833D02*
X113782235Y-77929690D01*
X113782235Y-77929690D02*
X113210807Y-78501119D01*
X113210807Y-78501119D02*
X113829854Y-78501119D01*
D13*
X104784724Y-70372500D02*
X104275276Y-70372500D01*
X104784724Y-69327500D02*
X104275276Y-69327500D01*
X100812776Y-70917500D02*
X101322224Y-70917500D01*
X100812776Y-71962500D02*
X101322224Y-71962500D01*
X101216267Y-73470000D02*
X100923733Y-73470000D01*
X101216267Y-72450000D02*
X100923733Y-72450000D01*
D10*
X103221680Y-71485000D02*
G75*
G02*
X103195000Y-71485000I-13340J0D01*
G01*
X103195000Y-71485000D02*
G75*
G02*
X103221680Y-71485000I13340J0D01*
G01*
D13*
X106940000Y-74943733D02*
X106940000Y-75236267D01*
X105920000Y-74943733D02*
X105920000Y-75236267D01*
%LPC*%
D14*
X115720000Y-80590000D03*
D15*
X115720000Y-78050000D03*
D14*
X115720000Y-65630000D03*
D15*
X115720000Y-68170000D03*
D14*
X115720000Y-71840000D03*
D16*
X115720000Y-74380000D03*
D17*
X105442500Y-69850000D03*
X103617500Y-69850000D03*
D18*
X100155000Y-71440000D03*
X101980000Y-71440000D03*
D19*
X101932500Y-72960000D03*
X100207500Y-72960000D03*
D20*
X103710340Y-71525000D03*
X103710340Y-72025000D03*
X103710340Y-72525000D03*
X103710340Y-73025000D03*
D21*
X104275340Y-73090000D03*
X104775340Y-73090000D03*
D20*
X105340340Y-73025000D03*
X105340340Y-72525000D03*
X105340340Y-72025000D03*
X105340340Y-71525000D03*
D21*
X104775340Y-71460000D03*
X104275340Y-71460000D03*
D22*
X106430000Y-74227500D03*
X106430000Y-75952500D03*
%LPD*%
M02*
