G04 #@! TF.GenerationSoftware,KiCad,Pcbnew,8.0.5*
G04 #@! TF.CreationDate,2024-09-21T15:57:37+02:00*
G04 #@! TF.ProjectId,BMA400-breakout,424d4134-3030-42d6-9272-65616b6f7574,rev?*
G04 #@! TF.SameCoordinates,Original*
G04 #@! TF.FileFunction,Copper,L1,Top*
G04 #@! TF.FilePolarity,Positive*
%FSLAX46Y46*%
G04 Gerber Fmt 4.6, Leading zero omitted, Abs format (unit mm)*
G04 Created by KiCad (PCBNEW 8.0.5) date 2024-09-21 15:57:37*
%MOMM*%
%LPD*%
G01*
G04 APERTURE LIST*
G04 Aperture macros list*
%AMRoundRect*
0 Rectangle with rounded corners*
0 $1 Rounding radius*
0 $2 $3 $4 $5 $6 $7 $8 $9 X,Y pos of 4 corners*
0 Add a 4 corners polygon primitive as box body*
4,1,4,$2,$3,$4,$5,$6,$7,$8,$9,$2,$3,0*
0 Add four circle primitives for the rounded corners*
1,1,$1+$1,$2,$3*
1,1,$1+$1,$4,$5*
1,1,$1+$1,$6,$7*
1,1,$1+$1,$8,$9*
0 Add four rect primitives between the rounded corners*
20,1,$1+$1,$2,$3,$4,$5,0*
20,1,$1+$1,$4,$5,$6,$7,0*
20,1,$1+$1,$6,$7,$8,$9,0*
20,1,$1+$1,$8,$9,$2,$3,0*%
G04 Aperture macros list end*
G04 #@! TA.AperFunction,ComponentPad*
%ADD10C,1.700000*%
G04 #@! TD*
G04 #@! TA.AperFunction,ComponentPad*
%ADD11O,1.700000X1.700000*%
G04 #@! TD*
G04 #@! TA.AperFunction,ComponentPad*
%ADD12R,1.700000X1.700000*%
G04 #@! TD*
G04 #@! TA.AperFunction,SMDPad,CuDef*
%ADD13RoundRect,0.237500X0.250000X0.237500X-0.250000X0.237500X-0.250000X-0.237500X0.250000X-0.237500X0*%
G04 #@! TD*
G04 #@! TA.AperFunction,SMDPad,CuDef*
%ADD14RoundRect,0.237500X-0.250000X-0.237500X0.250000X-0.237500X0.250000X0.237500X-0.250000X0.237500X0*%
G04 #@! TD*
G04 #@! TA.AperFunction,SMDPad,CuDef*
%ADD15RoundRect,0.237500X0.300000X0.237500X-0.300000X0.237500X-0.300000X-0.237500X0.300000X-0.237500X0*%
G04 #@! TD*
G04 #@! TA.AperFunction,SMDPad,CuDef*
%ADD16R,0.410000X0.280000*%
G04 #@! TD*
G04 #@! TA.AperFunction,SMDPad,CuDef*
%ADD17R,0.280000X0.410000*%
G04 #@! TD*
G04 #@! TA.AperFunction,SMDPad,CuDef*
%ADD18RoundRect,0.237500X-0.237500X0.300000X-0.237500X-0.300000X0.237500X-0.300000X0.237500X0.300000X0*%
G04 #@! TD*
G04 #@! TA.AperFunction,ViaPad*
%ADD19C,0.600000*%
G04 #@! TD*
G04 #@! TA.AperFunction,Conductor*
%ADD20C,0.200000*%
G04 #@! TD*
G04 #@! TA.AperFunction,Conductor*
%ADD21C,0.400000*%
G04 #@! TD*
G04 APERTURE END LIST*
D10*
X115720000Y-80590000D03*
D11*
X115720000Y-78050000D03*
D10*
X115720000Y-65630000D03*
D11*
X115720000Y-68170000D03*
D10*
X115720000Y-71840000D03*
D12*
X115720000Y-74380000D03*
D13*
X105442500Y-69850000D03*
X103617500Y-69850000D03*
D14*
X100155000Y-71440000D03*
X101980000Y-71440000D03*
D15*
X101932500Y-72960000D03*
X100207500Y-72960000D03*
D16*
X103710340Y-71525000D03*
X103710340Y-72025000D03*
X103710340Y-72525000D03*
X103710340Y-73025000D03*
D17*
X104275340Y-73090000D03*
X104775340Y-73090000D03*
D16*
X105340340Y-73025000D03*
X105340340Y-72525000D03*
X105340340Y-72025000D03*
X105340340Y-71525000D03*
D17*
X104775340Y-71460000D03*
X104275340Y-71460000D03*
D18*
X106430000Y-74227500D03*
X106430000Y-75952500D03*
D19*
X108630000Y-66860000D03*
X109770000Y-75200000D03*
X109320000Y-79250000D03*
X101900000Y-70350000D03*
X106510000Y-72520000D03*
X103080000Y-70940000D03*
X108020000Y-70230000D03*
X104720000Y-73930000D03*
X103910000Y-73930000D03*
D20*
X105340340Y-71525000D02*
X108502500Y-71525000D01*
X108502500Y-71525000D02*
X108817500Y-71840000D01*
X105340340Y-72025000D02*
X106015000Y-72025000D01*
X106015000Y-72025000D02*
X106510000Y-72520000D01*
X100155000Y-71440000D02*
X100155000Y-70805000D01*
X100155000Y-70805000D02*
X101340000Y-69620000D01*
X101340000Y-69620000D02*
X103387500Y-69620000D01*
X103387500Y-69620000D02*
X103617500Y-69850000D01*
X101980000Y-71440000D02*
X101980000Y-70430000D01*
X101980000Y-70430000D02*
X101900000Y-70350000D01*
X105340340Y-72525000D02*
X106505000Y-72525000D01*
X106505000Y-72525000D02*
X106510000Y-72520000D01*
X103710340Y-71525000D02*
X103665000Y-71525000D01*
X103665000Y-71525000D02*
X103080000Y-70940000D01*
X103710340Y-72025000D02*
X102565000Y-72025000D01*
X102565000Y-72025000D02*
X101980000Y-71440000D01*
X105442500Y-69850000D02*
X105442500Y-69217500D01*
X105442500Y-69217500D02*
X106490000Y-68170000D01*
X106490000Y-68170000D02*
X115720000Y-68170000D01*
X104275340Y-71460000D02*
X104275340Y-71015000D01*
X104275340Y-71015000D02*
X104380340Y-70910000D01*
X104380340Y-70910000D02*
X105000000Y-70910000D01*
X105000000Y-70910000D02*
X105442500Y-70467500D01*
X105442500Y-70467500D02*
X105442500Y-69850000D01*
X101932500Y-72960000D02*
X101880000Y-72960000D01*
X101880000Y-72960000D02*
X100360000Y-71440000D01*
X100360000Y-71440000D02*
X100155000Y-71440000D01*
X101932500Y-72960000D02*
X102367500Y-72525000D01*
X102367500Y-72525000D02*
X103710340Y-72525000D01*
X105747500Y-74910000D02*
X103060000Y-74910000D01*
X106430000Y-74227500D02*
X105747500Y-74910000D01*
X103060000Y-74910000D02*
X101932500Y-73782500D01*
X101932500Y-73782500D02*
X101932500Y-72960000D01*
X106430000Y-74227500D02*
X106430000Y-74114660D01*
X106430000Y-74114660D02*
X105340340Y-73025000D01*
D21*
X115720000Y-71840000D02*
X108817500Y-71840000D01*
D20*
X108817500Y-71840000D02*
X106430000Y-74227500D01*
X104275340Y-73090000D02*
X104275340Y-73526131D01*
X104275340Y-73526131D02*
X103910000Y-73891471D01*
X103910000Y-73891471D02*
X103910000Y-73930000D01*
X104775340Y-73090000D02*
X104775340Y-73874660D01*
X104775340Y-73874660D02*
X104720000Y-73930000D01*
G04 #@! TA.AperFunction,Conductor*
G36*
X114995085Y-64280185D02*
G01*
X115040840Y-64332989D01*
X115050784Y-64402147D01*
X115021759Y-64465703D01*
X114999169Y-64486075D01*
X114848597Y-64591505D01*
X114681505Y-64758597D01*
X114545965Y-64952169D01*
X114545964Y-64952171D01*
X114446098Y-65166335D01*
X114446094Y-65166344D01*
X114384938Y-65394586D01*
X114384936Y-65394596D01*
X114364341Y-65629999D01*
X114364341Y-65630000D01*
X114384936Y-65865403D01*
X114384938Y-65865413D01*
X114446094Y-66093655D01*
X114446096Y-66093659D01*
X114446097Y-66093663D01*
X114542319Y-66300012D01*
X114545965Y-66307830D01*
X114545967Y-66307834D01*
X114654281Y-66462521D01*
X114681501Y-66501396D01*
X114681506Y-66501402D01*
X114848597Y-66668493D01*
X114848603Y-66668498D01*
X115034158Y-66798425D01*
X115077783Y-66853002D01*
X115084977Y-66922500D01*
X115053454Y-66984855D01*
X115034158Y-67001575D01*
X114848597Y-67131505D01*
X114681506Y-67298596D01*
X114545965Y-67492170D01*
X114545962Y-67492175D01*
X114543289Y-67497909D01*
X114497115Y-67550346D01*
X114430909Y-67569500D01*
X106576670Y-67569500D01*
X106576654Y-67569499D01*
X106569058Y-67569499D01*
X106410943Y-67569499D01*
X106334579Y-67589961D01*
X106258214Y-67610423D01*
X106258209Y-67610426D01*
X106121290Y-67689475D01*
X106121282Y-67689481D01*
X104961982Y-68848781D01*
X104961978Y-68848787D01*
X104940850Y-68885381D01*
X104890282Y-68933595D01*
X104884937Y-68935844D01*
X104885029Y-68936040D01*
X104878487Y-68939090D01*
X104731648Y-69029661D01*
X104617681Y-69143629D01*
X104556358Y-69177114D01*
X104486666Y-69172130D01*
X104442319Y-69143629D01*
X104328351Y-69029661D01*
X104328350Y-69029660D01*
X104181516Y-68939092D01*
X104017753Y-68884826D01*
X104017751Y-68884825D01*
X103916678Y-68874500D01*
X103318330Y-68874500D01*
X103318312Y-68874501D01*
X103217247Y-68884825D01*
X103053484Y-68939092D01*
X103053477Y-68939095D01*
X102953051Y-69001039D01*
X102887955Y-69019500D01*
X101419057Y-69019500D01*
X101260943Y-69019500D01*
X101108215Y-69060423D01*
X101108214Y-69060423D01*
X101108212Y-69060424D01*
X101108209Y-69060425D01*
X101058096Y-69089359D01*
X101058095Y-69089360D01*
X101014689Y-69114420D01*
X100971285Y-69139479D01*
X100971282Y-69139481D01*
X99674479Y-70436284D01*
X99651466Y-70476145D01*
X99600898Y-70524360D01*
X99596494Y-70526521D01*
X99590994Y-70529086D01*
X99444148Y-70619661D01*
X99322161Y-70741648D01*
X99231593Y-70888481D01*
X99231591Y-70888486D01*
X99206097Y-70965423D01*
X99177326Y-71052247D01*
X99177326Y-71052248D01*
X99177325Y-71052248D01*
X99167000Y-71153315D01*
X99167000Y-71726669D01*
X99167001Y-71726687D01*
X99177325Y-71827752D01*
X99181384Y-71840000D01*
X99231592Y-71991516D01*
X99321578Y-72137407D01*
X99340018Y-72204797D01*
X99321577Y-72267599D01*
X99234551Y-72408688D01*
X99234546Y-72408699D01*
X99180319Y-72572347D01*
X99170000Y-72673345D01*
X99170000Y-72710000D01*
X100333500Y-72710000D01*
X100400539Y-72729685D01*
X100446294Y-72782489D01*
X100457500Y-72834000D01*
X100457500Y-73934999D01*
X100556640Y-73934999D01*
X100556654Y-73934998D01*
X100657652Y-73924680D01*
X100821300Y-73870453D01*
X100821311Y-73870448D01*
X100968035Y-73779947D01*
X100981960Y-73766021D01*
X101043282Y-73732533D01*
X101112973Y-73737514D01*
X101157327Y-73766017D01*
X101171650Y-73780340D01*
X101295748Y-73856884D01*
X101342472Y-73908831D01*
X101350425Y-73930327D01*
X101372921Y-74014281D01*
X101372923Y-74014286D01*
X101385230Y-74035601D01*
X101385231Y-74035603D01*
X101451977Y-74151212D01*
X101451981Y-74151217D01*
X101570849Y-74270085D01*
X101570854Y-74270089D01*
X102691284Y-75390520D01*
X102828215Y-75469577D01*
X102980943Y-75510501D01*
X102980946Y-75510501D01*
X103146654Y-75510501D01*
X103146670Y-75510500D01*
X105331000Y-75510500D01*
X105398039Y-75530185D01*
X105443794Y-75582989D01*
X105455000Y-75634500D01*
X105455000Y-75702500D01*
X107404999Y-75702500D01*
X107404999Y-75603360D01*
X107404998Y-75603345D01*
X107394680Y-75502347D01*
X107340453Y-75338699D01*
X107340448Y-75338688D01*
X107249947Y-75191965D01*
X107249944Y-75191961D01*
X107236017Y-75178034D01*
X107202532Y-75116711D01*
X107207516Y-75047019D01*
X107236017Y-75002672D01*
X107250340Y-74988350D01*
X107340908Y-74841516D01*
X107395174Y-74677753D01*
X107405500Y-74576677D01*
X107405499Y-74152595D01*
X107425183Y-74085557D01*
X107441813Y-74064920D01*
X108929916Y-72576819D01*
X108991239Y-72543334D01*
X109017597Y-72540500D01*
X114497289Y-72540500D01*
X114564328Y-72560185D01*
X114598863Y-72593376D01*
X114614224Y-72615313D01*
X114681503Y-72711399D01*
X114681504Y-72711400D01*
X114681505Y-72711401D01*
X114803819Y-72833715D01*
X114837303Y-72895036D01*
X114832319Y-72964728D01*
X114790448Y-73020662D01*
X114759471Y-73037577D01*
X114627912Y-73086646D01*
X114627906Y-73086649D01*
X114512812Y-73172809D01*
X114512809Y-73172812D01*
X114426649Y-73287906D01*
X114426645Y-73287913D01*
X114376403Y-73422620D01*
X114376401Y-73422627D01*
X114370000Y-73482155D01*
X114370000Y-74130000D01*
X115286988Y-74130000D01*
X115254075Y-74187007D01*
X115220000Y-74314174D01*
X115220000Y-74445826D01*
X115254075Y-74572993D01*
X115286988Y-74630000D01*
X114370000Y-74630000D01*
X114370000Y-75277844D01*
X114376401Y-75337372D01*
X114376403Y-75337379D01*
X114426645Y-75472086D01*
X114426649Y-75472093D01*
X114512809Y-75587187D01*
X114512812Y-75587190D01*
X114627906Y-75673350D01*
X114627913Y-75673354D01*
X114762620Y-75723596D01*
X114762627Y-75723598D01*
X114822155Y-75729999D01*
X114822172Y-75730000D01*
X115470000Y-75730000D01*
X115470000Y-74813012D01*
X115527007Y-74845925D01*
X115654174Y-74880000D01*
X115785826Y-74880000D01*
X115912993Y-74845925D01*
X115970000Y-74813012D01*
X115970000Y-75730000D01*
X116617828Y-75730000D01*
X116617844Y-75729999D01*
X116677372Y-75723598D01*
X116677379Y-75723596D01*
X116812086Y-75673354D01*
X116812089Y-75673352D01*
X116891188Y-75614139D01*
X116956653Y-75589721D01*
X117024926Y-75604572D01*
X117074332Y-75653977D01*
X117089500Y-75713405D01*
X117089500Y-77258045D01*
X117069815Y-77325084D01*
X117017011Y-77370839D01*
X116947853Y-77380783D01*
X116884297Y-77351758D01*
X116863925Y-77329168D01*
X116758494Y-77178597D01*
X116591402Y-77011506D01*
X116591395Y-77011501D01*
X116397834Y-76875967D01*
X116397830Y-76875965D01*
X116397828Y-76875964D01*
X116183663Y-76776097D01*
X116183659Y-76776096D01*
X116183655Y-76776094D01*
X115955413Y-76714938D01*
X115955403Y-76714936D01*
X115720001Y-76694341D01*
X115719999Y-76694341D01*
X115484596Y-76714936D01*
X115484586Y-76714938D01*
X115256344Y-76776094D01*
X115256335Y-76776098D01*
X115042171Y-76875964D01*
X115042169Y-76875965D01*
X114848597Y-77011505D01*
X114681505Y-77178597D01*
X114545965Y-77372169D01*
X114545964Y-77372171D01*
X114446098Y-77586335D01*
X114446094Y-77586344D01*
X114384938Y-77814586D01*
X114384936Y-77814596D01*
X114364341Y-78049999D01*
X114364341Y-78050000D01*
X114384936Y-78285403D01*
X114384938Y-78285413D01*
X114446094Y-78513655D01*
X114446096Y-78513659D01*
X114446097Y-78513663D01*
X114542319Y-78720012D01*
X114545965Y-78727830D01*
X114545967Y-78727834D01*
X114654281Y-78882521D01*
X114681501Y-78921396D01*
X114681506Y-78921402D01*
X114848597Y-79088493D01*
X114848603Y-79088498D01*
X115034158Y-79218425D01*
X115077783Y-79273002D01*
X115084977Y-79342500D01*
X115053454Y-79404855D01*
X115034158Y-79421575D01*
X114848597Y-79551505D01*
X114681505Y-79718597D01*
X114545965Y-79912169D01*
X114545964Y-79912171D01*
X114446098Y-80126335D01*
X114446094Y-80126344D01*
X114384938Y-80354586D01*
X114384936Y-80354596D01*
X114364341Y-80589999D01*
X114364341Y-80590000D01*
X114384936Y-80825403D01*
X114384938Y-80825413D01*
X114446094Y-81053655D01*
X114446096Y-81053659D01*
X114446097Y-81053663D01*
X114542319Y-81260012D01*
X114545965Y-81267830D01*
X114545967Y-81267834D01*
X114654281Y-81422521D01*
X114681505Y-81461401D01*
X114848599Y-81628495D01*
X114936967Y-81690371D01*
X114999168Y-81733925D01*
X115042793Y-81788502D01*
X115049986Y-81858000D01*
X115018464Y-81920355D01*
X114958234Y-81955769D01*
X114928045Y-81959500D01*
X98454500Y-81959500D01*
X98387461Y-81939815D01*
X98341706Y-81887011D01*
X98330500Y-81835500D01*
X98330500Y-76301654D01*
X105455001Y-76301654D01*
X105465319Y-76402652D01*
X105519546Y-76566300D01*
X105519551Y-76566311D01*
X105610052Y-76713034D01*
X105610055Y-76713038D01*
X105731961Y-76834944D01*
X105731965Y-76834947D01*
X105878688Y-76925448D01*
X105878699Y-76925453D01*
X106042347Y-76979680D01*
X106143352Y-76989999D01*
X106180000Y-76989999D01*
X106680000Y-76989999D01*
X106716640Y-76989999D01*
X106716654Y-76989998D01*
X106817652Y-76979680D01*
X106981300Y-76925453D01*
X106981311Y-76925448D01*
X107128034Y-76834947D01*
X107128038Y-76834944D01*
X107249944Y-76713038D01*
X107249947Y-76713034D01*
X107340448Y-76566311D01*
X107340453Y-76566300D01*
X107394680Y-76402652D01*
X107404999Y-76301654D01*
X107405000Y-76301641D01*
X107405000Y-76202500D01*
X106680000Y-76202500D01*
X106680000Y-76989999D01*
X106180000Y-76989999D01*
X106180000Y-76202500D01*
X105455001Y-76202500D01*
X105455001Y-76301654D01*
X98330500Y-76301654D01*
X98330500Y-73246654D01*
X99170001Y-73246654D01*
X99180319Y-73347652D01*
X99234546Y-73511300D01*
X99234551Y-73511311D01*
X99325052Y-73658034D01*
X99325055Y-73658038D01*
X99446961Y-73779944D01*
X99446965Y-73779947D01*
X99593688Y-73870448D01*
X99593699Y-73870453D01*
X99757347Y-73924680D01*
X99858351Y-73934999D01*
X99957500Y-73934998D01*
X99957500Y-73210000D01*
X99170001Y-73210000D01*
X99170001Y-73246654D01*
X98330500Y-73246654D01*
X98330500Y-64384500D01*
X98350185Y-64317461D01*
X98402989Y-64271706D01*
X98454500Y-64260500D01*
X114928046Y-64260500D01*
X114995085Y-64280185D01*
G37*
G04 #@! TD.AperFunction*
G04 #@! TA.AperFunction,Conductor*
G36*
X107450442Y-72145185D02*
G01*
X107496197Y-72197989D01*
X107506141Y-72267147D01*
X107477116Y-72330703D01*
X107471086Y-72337178D01*
X107048866Y-72759398D01*
X106655083Y-73153181D01*
X106593760Y-73186666D01*
X106567402Y-73189500D01*
X106405437Y-73189500D01*
X106338398Y-73169815D01*
X106317756Y-73153181D01*
X106081937Y-72917362D01*
X106048452Y-72856039D01*
X106046348Y-72840415D01*
X106046195Y-72840432D01*
X106040333Y-72785911D01*
X106040333Y-72759398D01*
X106045339Y-72712841D01*
X106045340Y-72712827D01*
X106045340Y-72665000D01*
X106035952Y-72655612D01*
X106000884Y-72645315D01*
X105968658Y-72615313D01*
X105944702Y-72583313D01*
X105920283Y-72517849D01*
X105935133Y-72449576D01*
X105984538Y-72400169D01*
X106043967Y-72385000D01*
X106045340Y-72385000D01*
X106045340Y-72337172D01*
X106045339Y-72337158D01*
X106040081Y-72288257D01*
X106040081Y-72261743D01*
X106042823Y-72236243D01*
X106069562Y-72171692D01*
X106126955Y-72131845D01*
X106166112Y-72125500D01*
X107383403Y-72125500D01*
X107450442Y-72145185D01*
G37*
G04 #@! TD.AperFunction*
G04 #@! TA.AperFunction,Conductor*
G36*
X114497948Y-68790185D02*
G01*
X114543292Y-68842097D01*
X114545965Y-68847830D01*
X114681505Y-69041401D01*
X114848599Y-69208495D01*
X114909708Y-69251284D01*
X115042165Y-69344032D01*
X115042167Y-69344033D01*
X115042170Y-69344035D01*
X115256337Y-69443903D01*
X115484592Y-69505063D01*
X115672918Y-69521539D01*
X115719999Y-69525659D01*
X115720000Y-69525659D01*
X115720001Y-69525659D01*
X115759234Y-69522226D01*
X115955408Y-69505063D01*
X116183663Y-69443903D01*
X116397830Y-69344035D01*
X116591401Y-69208495D01*
X116758495Y-69041401D01*
X116863925Y-68890830D01*
X116918502Y-68847206D01*
X116988000Y-68840012D01*
X117050355Y-68871535D01*
X117085769Y-68931764D01*
X117089500Y-68961954D01*
X117089500Y-71048045D01*
X117069815Y-71115084D01*
X117017011Y-71160839D01*
X116947853Y-71170783D01*
X116884297Y-71141758D01*
X116863925Y-71119168D01*
X116758494Y-70968597D01*
X116591402Y-70801506D01*
X116591395Y-70801501D01*
X116397834Y-70665967D01*
X116397830Y-70665965D01*
X116298531Y-70619661D01*
X116183663Y-70566097D01*
X116183659Y-70566096D01*
X116183655Y-70566094D01*
X115955413Y-70504938D01*
X115955403Y-70504936D01*
X115720001Y-70484341D01*
X115719999Y-70484341D01*
X115484596Y-70504936D01*
X115484586Y-70504938D01*
X115256344Y-70566094D01*
X115256335Y-70566098D01*
X115042171Y-70665964D01*
X115042169Y-70665965D01*
X114848597Y-70801505D01*
X114681506Y-70968596D01*
X114598864Y-71086623D01*
X114544287Y-71130248D01*
X114497289Y-71139500D01*
X109017598Y-71139500D01*
X108950559Y-71119815D01*
X108929917Y-71103181D01*
X108871217Y-71044481D01*
X108871216Y-71044480D01*
X108784404Y-70994360D01*
X108784404Y-70994359D01*
X108784400Y-70994358D01*
X108734285Y-70965423D01*
X108581557Y-70924499D01*
X108423443Y-70924499D01*
X108415847Y-70924499D01*
X108415831Y-70924500D01*
X106178529Y-70924500D01*
X106111490Y-70904815D01*
X106065735Y-70852011D01*
X106055791Y-70782853D01*
X106084816Y-70719297D01*
X106113429Y-70694963D01*
X106153350Y-70670340D01*
X106275340Y-70548350D01*
X106365908Y-70401516D01*
X106420174Y-70237753D01*
X106430500Y-70136677D01*
X106430499Y-69563324D01*
X106424547Y-69505061D01*
X106420174Y-69462247D01*
X106420173Y-69462244D01*
X106365908Y-69298485D01*
X106365908Y-69298484D01*
X106358186Y-69285965D01*
X106339747Y-69218574D01*
X106360670Y-69151911D01*
X106376035Y-69133200D01*
X106702419Y-68806816D01*
X106763740Y-68773334D01*
X106790098Y-68770500D01*
X114430909Y-68770500D01*
X114497948Y-68790185D01*
G37*
G04 #@! TD.AperFunction*
M02*
